<svg xmlns="http://www.w3.org/2000/svg" viewBox="0 0 234.58 106.11"><path d="M87.16,93.87c.63,4.63,7.21,3.95,8.86,7.18,1.44,5.26-1,10.1-6.6,7.21-4.64,4-1.9.38-5.89-.31-1.92,1.36-6.39-.91-4.6.78-3-.39-10.9.32-11.35-2.44C63.5,108.76,58,111,53.4,107.39c.58-2.68-7.35,1.88-9.81,1.62-6.74-.17-17.23-4.44-18.32,6.91.11,5.8,11.53,5.48,3.61,11l-3.2,5.19c-16.2,45,38,59.88,63.71,38.73,21.44-16.64,3.09-40,21-49.55C125.69,103.68,98,59.05,87.16,93.87ZM55,162.22l-4.23-1.81c-3,.93-4-4.16-6.22-2.43.07-1.64.31-2.81-1-4.45-5.34-10.07-2.31-16.64,3.38-25.08,3.79-2.21,8.68-4,14.1-1.45,6.27-3.36,11.36-.74,16.59-1.32C95.31,141.09,78.43,171.33,55,162.22Z" transform="translate(-22.71 -80.94)"/><path d="M240.92,85.65c-1.48.83-2.19-.28-.26-.3" transform="translate(-22.71 -80.94)"/><path d="M55.85,140c-7,18.31,30.09-1.5,3.81-3.64" transform="translate(-22.71 -80.94)"/><path d="M154.63,187.06c18.33-3.63,4.37-25.09-5.06-18-12,2.28-26,2.06-39.36.11-16.82-.3-9.71,17.71,4.46,15.86,12.57,2.09,25.46,1.54,36.93,2" transform="translate(-22.71 -80.94)"/><path d="M109.67,183c-2.93.64-2.92-1.41,0-.66" transform="translate(-22.71 -80.94)"/><path d="M248,85.64c-5.59-4-18.8,1.63-18.56,11.44,2.21,6.3,9.78,2.63,9.75,10,1.64,6.37-5.44,5.45-8.59,4.24-2.7-.57.87,1.07.19,1.64-2.28,1.9-10.32.3-9.27-2.57-3.43,3.38-9.36.92-12.93-1-2.09,7.08-13-.12-18,0-6.14,8-18.91-5.26-22.4,8.41-1.33,4.84,5.77,5.68,6.68,8.12-4.9,6.69-11.43,14.19-8.91,22.84-.34,40.18,52,43.66,70.44,20.58l4.94-8.94c8.59-11.88-3.22-32.18,8.35-33.16C262.41,118.19,257.29,96.42,248,85.64Zm-31.81,79.43c-5.15,1.4-21.74,4.26-28-5.41-7.7-9.2-5.13-22.32,4.48-29.84,3.9-3.46,5.48-1.13,9.27.2,3.89-.64,8.76-3.2,12-1.63l7.52,1.64C233.63,139.79,226.9,156.86,216.18,165.07Z" transform="translate(-22.71 -80.94)"/><path d="M212,143.68c-17.07-16.5-18.49,21.28,0,2" transform="translate(-22.71 -80.94)"/><path d="M183.6,152.39c.83,1.48-.28,2.19-.3.26" transform="translate(-22.71 -80.94)"/></svg>