<svg xmlns="http://www.w3.org/2000/svg" viewBox="0 0 288 100"><path d="M206.22,87.48h0c11.11-.38-5.37-8.28,6.11-8.49-1.65-1.88-5.62,2.75-6.42-1.11-2.31-5.44,1.66-4,1.65-6.26-5.74.13-3.2,3.8-6.63,7.43-10.36,11.82-4.74,3-11.19-1.09-1.22,0,7.1-4.67,2.48-5.42-13.05,5.08,5.21-8.7-4.13-11.57-5.1.86-.37,11.9-8.86,14.23.9-4-5.21-3.09-5.59.16,0,4.13,3.8.8,4.93,1.28-4.53,16.09-17.81,4.84-6.85-3.85.87-.67,3.11,1.18,2.75-.29-4.49-2-8.08,2.8-12.23,4.22-1.81-2,.88-6.06-4.93-3.54-2.92,2.86.45,5.29,3.43,4.61A9,9,0,0,1,155,86c-8.75.78-3.56-8.36-2.33-11.84.17-1.38,3.83-.37,1.82-1.62-2.5-.41-3.75,1.53-5,3.19-6,1.64-9.73-4-7.66,1.91.82,3.89-5.28,10.24-8.43,6,.87-6.58,9.15-13.14,5.78-20.43-7.67-1.89-6,16.46-11.26,20.62-3,1.72-7.17,1.55-6.77-2.7,2.41-1,7.84-3.07,7.59-7.61-9-10.15-10.78,21.8-16.91,9.61,1.4-18.67,4.74-11.16,15.39-14.83-17.26,1.09-8.6,1.87-11.72-5-2.95,2-1.39,7.42-7,6.22-2,1.49,3.2-.1,3.81.36-.23,2.81-6.28,8.22-6.4,3.06-2.15-1.78-6.22-1.63-8.67,0-13.74,10.9,5.38,21.28,8.86,3.43,10.77-7.16-4.39,11.22,7.38,9.86,2.43.1,3.87-1.36,5.33-3,2.3,4,9.4,2.77,11.47-1.46,1.35,8.38,14.63,1.82,12.19-5.53,5.52,2.07,8.3-3.52,4.93,4.83-.62,10.17,14.86,5.12,14.23-3.41,6.43-3.48,4.37-2.73,3.27,3.21-.57,6.06,8.06,6.84,11,2,2.77-2,2.31-6.36,4.95-8.2,7.76-4.58-3.53,12.91,3.1,10.39,1.26-1.94,2.42-8.5,5.23-5.7,3.78,18.85,12.85-8.17,15.43,1.42-3.95,1.72-5.5,5.07-.6,6.68m2.28-.75c-11,.38,1.11-10.51,1.3-.39M90,86.44h0c4.4-1.47,3.35-1.75-.16-.7-2-4.66,5.34-20.73-4.79-11.28-.83-3.59-2.88-2.93-5.28-.78C77.34,75.23,74,81,78.18,76.3c7.52-8.22,2.49,1.4,1.26,6-2.56,3.16,1.49,5.79,2.16,1.33,1.91-3.49,3-10.72,7.21-11-1.5,3.53-5.53,13.45.42,13.87M99.5,85.22c-7.28,1.51-3.71-13.66,1.6-12.86-3.37,8.93,10.27-1.17.3,11.71M122,79.71c-1-9.25,9.44-9,.92-.39m12.19-5.68c.65-2.94,1.79-8.67,3.25-9.91,1.62,3.33-5.92,17.8-4,12.44m26.74-1.3c-.41.67.14,1.35-.32,2-3.25,2.16-1.75-7,.29-2.49m24.54,4.28c3-8.89,10.52-4.36.07.54m-9-5.68h0c4.58-1.34-.57,6.2-.33.14m10.76-1.75c-.06-.43.25-.42.16,0m1.26-8.5c2.71-4.16.7,6.44-1.17,8.07-.59-2.12.84-5.24,1.17-7.56m-84.35,8.62h0c4.87,3.56-3.14,5.22-.75,0"/><path d="M104.53,55.76h0c3-1.17,6.08.63,8.72-.49,1.88-3.37-4-1.18-4.53-3.17.12-3.28-.39-6.38,0-9.76-.11-6.76,1.23-13.43.06-20.25.55-3.36-2.75-7.18,3.2-6.77,4.56-3.57-5.44-2.36-7.29-2.58.18,6-4.33,14.93-7.19,21.19C97.06,41.5,86.63,17.45,84.5,16c-2.26-3,1-.54,2.81-.86,3-2.37-.64-3.83-2.75-3a21.24,21.24,0,0,0-8.18,1c-.47,3.52,2.45,2,4.37,1.63,1.09,4.1-.57,9.06-.47,13.63-1,9.11-1.18,15.75-2.37,24.31C68.22,56.85,88.24,55.35,90.5,54c1.59-3.73-2.87-.88-2.61-1.68-.19-6.29.35-19.14,1.61-22.16a38.66,38.66,0,0,0,5.25,7.62c.91.72.3,3.46,2.3,1.94A71.06,71.06,0,0,0,104,24.34c1-1.22,1.26-3.49,2.1-4.33.06,4.43.79,9.07.17,13.33-1.72,6,2.18,16.19-1.79,20.26-.55,0-.94.31-1.64.33-3-1.15-1.06,3,1,2.25M206.71,44.59c.13,1.11,1.08,8.76-1,4.86-1.31-4,.44-43.19,1.78-26.74-1.49,7.55.71,14.79-1,21.38m-11,.5c2,4.4-3.58,5.63-6.21,4.55,1.33-2.49-.17-5.27,1.66-7.81,4.82-1.83,5.75-2.45,4.71,3m-8.21.23c-.52,2-.24,6.13-2.89,3.27-1.52-1.3,3.49-6.6,3.1-3.75m-12.58.37c-.88-2-2.95-3.45-3.19-5.15-.24-.55-.6.08-.87-.4s-.8-.9-.65-1.34c.05-.79,3.4-3.68,4.91-4.82,2.93-.74,2.43-3.62-.41-3.28-1,0-3-.46-2.63,1.25,1,2.07-3.81,4.93-5.41,6.39-1-4.8.35-11.25-.19-16.31,0-.52-.9-1.31-.22-1.84,1.89.85,3.51-1.6,1.35-2.49-2.55.6-5.08.07-8,.25-3.52.75-.34,1.88.67,2.93a47,47,0,0,0,0,7.5c-.5,5.56,0,10.74-.9,15.4a34.06,34.06,0,0,1,0,4.84c.64,2.18-.72,3.33-2.46,2.77-3.88,1,1.58,3.71,3.53,1.77,2.44.37,9.15,1.84,5.2-2.22,1-3.55-1.27-9.49,2.94-10.85,2.44,3.82,5.35,8.44,7.6,11.82-3-1.27-4.16,2-1.17,1.84,2.2.91,12.35,1.08,5.17-1.78-2.1.18-3.13-4.12-4.76-5.83M58.8,35.75c-7.9,2.73-8.49,16.91.56,18.77,2.59,2.8,19.23-3.73,13.55-5.18-1.74-4-8.61-2.77-3.22.16-.9,3-7.38,4-9.68,2.42,1.05-2.58-.46-6.3,2.59-7.92,8.68-4,7.95-9.44-1.3-9.49m179.36,2.74c-2.84,2.57-3.19,6-3,9.66-.8,4.71,3.95,8.08,7.59,8.4,3.62,1.56,8.22.33,11.14-2.89.65,1.33,3,1.3,2.63-.36-.6-2.88-9.32-9.08-4.6-1.63-1.35,2.61-7.17,4.33-8.73,2.1-3-7.08,4.17-8.59,8.53-11.79,0-6.72-8.5-7.43-13.05-4.09M130,44.54c3.21-16.9-5-10.67-14.53-8.48-1.39,1.8,2.09,4.54,3.38,5.62a1.62,1.62,0,0,0-.34-3c-1.17-1.88,11.45-6,9.66,0-1.14,3.72,1,8.65-1.93,11.22-1.67.28-3.48,1.11-5,.93-1.92-4.5.36-8.63,5.6-8,1.32-5-9.45-.25-10.84,2-5.41,4.62-1.71,9.77,4.33,9,11.15-4.27,4.83,1.33,10.79-.37,4,.93,2.86-4-.71-2.43-.24-2.11-1.13-4.18-.25-6.22m102.54-19.5a52.63,52.63,0,0,0,.22-8.8c1.85.33,4.46-1.68,1.19-2.58-3.2.54-6.39-.49-9.56.49-1.23,1.11.88,1.63,1.64,2-.06,2.44.25,4.77-.46,7.17.18,2.77.63,5.38-.25,8,.61,1,1.31,24.66-2.49,20.12-5.16,2.13,3.94,2.75,5.68,2.6,2.17-1.6,3.5,1.12,5.36,0,1.25-1.35-1.13-1.8-1.61-2.8-1.8-2,.27-6.29-.24-9,0-5.11,0-10.23.51-15.45M217.6,45.43c-8.49,8.61-10.08-.53-7.53-7.42,5.31-2,11.5.64,8.09,7m-54.6.22c-.41,1.11.58,4.74-.79,4.54-2.11-2.06.32-8.06-.32-11,1.69-3.4-2.06-20.68,1.79-18.91.83,4.64-.73,9.11-.36,13.28,0,4.11-.21,7.7-.21,11.68m39.51-.25c.61,6.39-2.61,6.6,5.19,9.38,1,.21,1.32-.67,1.81-1.25.77.22,1.71.37,2-.68.25-2.51,4.77-1.89,6.05-4.2,7.41-6,.41-16.71-8.45-11.91-.47-4.47-.94-15.1,1.59-17.5,3.23-1.07.25-3.33-1.88-2.44-2.4,1.34-7.16-1.52-8.27,1.41.21,1,1.77.53,2.42,1-.21,2.29,0,4.75-.9,7.18,0,5.37-.38,10.61.45,16.23m-169,2.73c.29,1.81-.47,11.38-1.7,6.19-.06-2.57.37-19.64,1.69-9.43m208.76,3c-.28,4.43,0,12-3,3.26-1.45-4.94,6.47-15.59,3.07-4.26m-104.28,0c.36-2-2.79-7.77.42-7.64a21.47,21.47,0,0,1-.36,8.17m-2.1.44c-.51,2.09.43,4.19.14,6-3.73,2.87,6.08,2.39,7.55,1.57,1.47-2.42-1.67-1.65-2.25-2.23-1.12-5.24-1.31-10,4.5-11.94,1.17.36,2-1.34,3.31-1.51.93.35,1,1.56.88,2.34,1,.81-.35,1.41-.3,2.32.46,1.57,3,1.21,3.52.21.5-.61,0-1.59,1.07-2.2.94-2.22,0-3-1.82-1.79-2-8.3-8.47,1.17-11.56.09,1.87-2,2.93-3.48-1.39-3.62-1.19-.81-2.71,1.11-4.37.46-2,1.77,1.44,5.4.26,8.27m-19.72,6h0c1.75-3.76,2.15-.8,1.75,1.52,1.7,2.21-1.65,1.7-2.25,0m-57.28-5.5C58.28,48.22,57.8,55,55,46.8c-.65-5.11,7-13.93,3.74-3.22M45.92,42.1h0c1.08-1.75,4.36-2.36,4.13-4.63-.74-1.35-1.59-.17-2.44-.06-2.12-6.57-8.77,1-11.81,3.26-.14-.46-.39-3.63.75-3,2.46.84,2.81-2.88.25-1.8a29.77,29.77,0,0,0-5.92.23c0,4,.26,10.07-.4,15.14-3.72,3.07,1.09,3.61,4.14,2.64,1.42-.57,6.5.47,4.19-2.17-1.81.11-4,.52-2.93-2.17-.11-2.09-.37-5.88.84-7.3,2.22-1.57,6.54-6.88,8.92-4.71.58,1.64-3.75,4.15-.09,4.64M182.81,44c-4.31,7.14,7.16,9.37,12.26,7,.39,2.32,4.57,1.29,6.57,1.63,2.27-2.68-2.3-2.39-3-2.06-1-4.82-.1-11,.69-16.54-1.12-6-12.28-1.86-15.45-1.45C180,31,182.72,37,184.33,38c1.26,2,2.41-.73,1.78-2-.87-.66-1.25-1.19.1-1.54,2.67-.55,11.93-3.21,10.25,1.5,1.55,3-10.12,1.25-13.52,8M81.47,43.11c.73-7.46,1.73-16.82,2.18-23,3,2.41,3.19,6.72,2.58,10,.14,7.45-1.36,14.6-1.37,21.92-6.49,2.43-3.35-4.71-3.22-8.71m78.17.58c-.21-.37.07-.55.08-.07M230.31,25c.15,7.2-.76,17.12-.69,23.91-.61,1,.47,2-.81,2.62-1.46,2.66-.66-1.31-.9-2.41-.18-10.88.75-20.39.46-31.54-.29-.24-.34-1.27.25-1.05,4-.78,1.49,6.41,1.76,8.35m15.55,17.5c-.75-5.8,4.43-7,5.54-2.41-1.71,1.38-3.94,1.33-5.46,2.71M138.93,45.1c.35-1.3.34,2,0,.74M61.56,41.92c.22-1.52.31-3.56.46-4.87,4.89-.19,4.1,2.08.7,4.24m150.33-5.86c-.15-.25.3-.23.33-.09"/></svg>