<svg xmlns="http://www.w3.org/2000/svg" viewBox="0 0 32 32"><path d="M7.23,11.17h0c.47.56,1.51.24,1.29-.54a2.39,2.39,0,0,1-1.29-2.5,12,12,0,0,1,2.52,2.19c0,.35-.05.71.39.83.67-.05.58-1,.42-1.44,1.6-1.83,4.87-2.38,7.2-1.77,1.87.25-.59.6,0,1.47,1.3.48,2.08-1.46,3.13-1.75.4.8-2.25,3.26-.08,2.89.66-1.07.92-2.41,1.65-3.42,1-.91,1,2.77,1.09,3.51-.61,1,.42,1.86,1,.59.6-1.76-.37-3.85-.63-5.67-1.37-1.3-3.2,1.43-4.54,1.9-2.05-2.12-5.94-.59-8.39.44-.54.41-1.1,1.47-1.69.55C6,4.69,5.86,7.35,5.2,10.78c-.66,1.06.49,1.62,1.07.58.17-.3,0-.93.34-1" /><path d="M20.74,23.31c-2.43,1.14-5.31,3.55-7.51.64-1.17-.44-2-1.31-3.2-1.62-.66-.2-1-1.17-1.78-.83-1.24,1.27,1.93,1.88,2.69,2.41.79.72,1.9.9,2.47,1.81a9.12,9.12,0,0,1,2,1.1c.37.11.47-.35.75-.44.23.08.54.23.79.09a39.54,39.54,0,0,1,7.33-3.67c.7-.38.25-1-.34-1.19a32.35,32.35,0,0,0-3,1.66" /><path d="M17.67,15.44h0c.69-.39,1.32-.86,2.07-.58.25.88.82,1,1.21.08.21-1.91-3.74-1.55-3.64.15" /><path d="M10.15,15.46h0c.61,1.19,1.36-.76,2.29-.74.32-.06.49.43.78.41.48-.05,1-.79.41-1.09-.89-1-3.84.17-3.53,1.35" /><path d="M17.05,17.76h0c.09-1.13-1.16-.61-1.68-.74s-1.15.71-.56,1c.28,0,.54.07.61.39.34,1.88-3.46.49-3,1.85.78,1,.62,1.38,1.78.35a4,4,0,0,1,4.71.93.52.52,0,0,0,.58-.25,2.45,2.45,0,0,1,.71-1c.25-.8-.77-.77-1.12-.25-.81-.2-3.4-.64-2.43-1.85" /><path d="M4.56,17.7h0c.41-1,4.4-4.36,2.21-4.51-.84,1.18-4.46,4.31-3.17,5.54.3.14.74.53,1,.29.17,0,.72-.14.62.12-.72.55-.46,2.17.61,1.57.54-.13.25.24.1.5.21,1.69,2.25-.41,1.39-1.33-2.43-.35.23-1-1-1.79" /><path d="M28.05,18.46h0c-3.36-2.83,3.11-.46-.28-3.94-.52-1-1.73-.9-2.39-1.63-.1-.76-1.22-1.28-1.34-.26.11,1.84,3.23,1.51,3.1,3.19-.48.36-1.32.5-1.54,1.09a2.28,2.28,0,0,0,1,1.54c-.24.88-2,1.07-1.64,2.62.71.83.94-.51,1.33-.89.57-.65,2.17-.45,1.85-1.57" /></svg>
