<svg xmlns="http://www.w3.org/2000/svg" viewBox="0 0 32 32"><path d="M27.77,16.5c-.08-.18-.41-.19-.43-.37C28.56,13.55,25.62,13,25.78,11c-.15-1.61,1.07-3,.63-4.49a3.17,3.17,0,0,0-3.9.87c-1.29.67-2,2.39-3.24,2.92a9.82,9.82,0,0,0-5.48-1c-.78,0-1.65-.76-2.33-.15C9.77,8.76,7.93,7,6.53,6.34c-.45-1.06-1.9-.63-1.41.47-.34,1.87.76,4.09.34,6.1C6.39,15.6,2,17.07,5.68,20c1.29,1,2.75,1.74,3.9,2.81A9.43,9.43,0,0,0,12,24.76c4.34,1.66,3.29,2.52,7.61-.09.33-.52,1.18-.52,1.57-1a4.57,4.57,0,0,0,1.33-1.05,9.38,9.38,0,0,1,1.22-1.68C25,19.54,27.5,18.34,27.77,16.5Zm-1.41-1.09c-.12.5-.47.95,0,1.39-.23,1-1.44,1.57-2.19,2.23A24.46,24.46,0,0,1,16,24.68c-1.1-.3-2.42-1.53-3.61-1.1a4,4,0,0,1-1-.58c-.45.06-.83-1.51-1.4-1.32-2.95-1.87-6.28-3.75-3.2-7.32.61-.32.84-1,1.41-1.42.29-.2.79-.12.95-.5.13-.61-.87-1.07-1.27-.59-.2-1-1-2.73-.77-3.67a26.49,26.49,0,0,0,5,2.74c.66.3.75-.55,1.1-.73,1.57.44,3.29.23,4.84.76a1.59,1.59,0,0,0,2.29,0c1-1.66,7.05-6.43,3.52-1.58-.17,1.25-1.12,2.11-1.18,3.38s1.46.76,1.66-.18C25.37,13,26.72,14,26.36,15.41Z" /><path d="M14.79,16c.28-.59-.52-.9-.8-1.3s-.31-.76-.66-1c-.59-.36-2.37-.52-1.19-1.32l-.06-.23c-1.49-.47-3.3,1.81-3.65,3.35,0,.24.26.58.52.42.3.18.16.7.37,1C11,17.48,13.69,17.64,14.79,16Zm-4.06-.15c-.05.15-.24.29-.3.06a.82.82,0,0,0-.75-.22c-.1-.62.57-1.1,1-1.46A4.82,4.82,0,0,1,10.73,15.88Zm2.66-.17c-.67.7-1.51.12-1.65-.74C11.44,13.12,13.21,15.1,13.39,15.71Z" /><path d="M17.36,21.31s-.07.09-.12.08c-.17-.33-.94-.39-1-.83,1.22-1,.45-1.66-.88-1.77l-.16.1c-.5-.28-1.29.29-1,.9.39.26.89,1.3,0,1-2.23,1,.51,2.58,1.45,1.27C16.31,23.12,18.9,22.37,17.36,21.31Z" /><path d="M20.64,14.38c-.56-.31-.93-1.81-1.72-1.23-.39.75-2.34,2.1-1.15,2.93,1.35.38.41-.9,1.09-1.35.41.54.29,1.51.68,2.08a1.87,1.87,0,0,1-1.92-.52c-2.19.88,2.23,2.14,3.13,2a5,5,0,0,0,1.92-2.39C22.63,14.85,21.29,14.88,20.64,14.38Zm.57,1.88c-.78,1.34-1.51-1.82.11-.35C21.54,16,21.27,16.17,21.21,16.26Z" /></svg>
