<svg xmlns="http://www.w3.org/2000/svg" viewBox="0 0 32 32"><path d="M8.29,6c-.64-.5-1.65-.3-2.19-.89-.32.22-.64-.2-.85.27-.34,2,.38,4.45.62,6.45,1.36.75.35.32-.07,1.4-.53,1.36-3.17,3.33-1.12,4.41-.35.3-.92,1-.49,1.45.59.72,2.15-.21,2.41.42-.25.39-.6,1-.22,1.38s1.44.2.93-.48c1.3-2.64-.16-1.62-2-2.13,0-.36.75-1,.53-1.52s-.77-.15-.82-.48c.67-1.14,1.56-2.29,2.24-3.44.14-.29-.27-.39-.28-.62.34-.8-.25-1.55-.32-2.35-.09-1,.13-.88.67-.18a3.55,3.55,0,0,1,1.45,1.9c1.91-.06.59-1.93-.39-2.43-5.15-5.21,2-.44,3.3.4.42.45.64-.06,1-.19a6.7,6.7,0,0,1,5,.22c.63-.19,1.07-.46,1.48.18.89-.12,1.49-1.31,2.28-1.85.48-.31,1-.9,1.62-.84-.48,1-1.47,2.19-1.56,3.3.19.46.88,1.14,1.1.34,0-.73,1.67-4.37,1.89-3.24a6.8,6.8,0,0,1-.65,4.05c-.24.45.32,1,.68,1,.13.24.11.55.27.78.64.19.81.89,1.21,1.5.23.27.71.41.72.77-.39.8-3.95.4-2.49,1.82a1.13,1.13,0,0,1,1.3.46c-1,.64-3.12,1.09-.94,2.21.15.09.25.28,0,.34-1,.22-1.24,1.19-1.46,2-2.38.41-4.76,2.88-7.44,3.52-2-.59-4-2.08-6.16-2.48-.89-.19-1.66-2-2.54-1.23S8.24,23.44,8.73,24c1.81,1.21,4.37,1.44,6.16,3,3.06,0,5.56-2.65,8.26-3.58.27-.24.5-.61.23-.91.78,0,.81-1,1.58-1.23.54-.24,1.47-.49,1.06-1.23-.26-.31-.92-.43-.83-.85s.65-.39,1-.52c.47.32,1.08-.43.77-.91-.59-.49-.71-.93.13-1.17,2.14-.47.3-1.88-.51-2.73a7.89,7.89,0,0,0-1.33-1.84c-.08.09-.3.16-.36,0a5.38,5.38,0,0,0,.76-3.64c.19-.25,0-.37.12-.6-.44-.86.48-1.79.15-2.68-1.42-.64-3.09,1.16-4.5,1.6-.81.3-1.32,2.18-2.24,1.35-1,.38-1.8.62-2.73-.15-.8.37-1.57-.13-2.37,0s-1.38.59-2.07.11c-.31-.12-.63.21-.82,0a4.5,4.5,0,0,0-2.4-1.64" /><path d="M13.79,15c-.55-1.11-2-3-3.34-2.23-.76.79-3.16,2.34-1.56,3.38,1,.52,1.34.28,2.41.73C12.48,16.82,13.76,16.26,13.79,15Zm-3.24.51c-1.66.25-.67-1.23-.1-.66C10.4,15,10.75,15.35,10.55,15.49Zm2-.2c-.67,1.26-1.62-.85-.84-1.24C12.06,14.36,12.7,14.79,12.57,15.29Z" /><path d="M18.48,21.34a2.71,2.71,0,0,0-2-1.29c-.19-.22-.34-.51-.66-.57-.09,0-.25.2-.36.06.92-1.22.66-1.49-.87-1.73-1.1.16-.76,1.09-.75,1.8-.53.52-1.45.57-1.87,1.19-.45,1.22,1.32,2,2,2.73C14.91,23.5,18.55,22.2,18.48,21.34Zm-1.84,0c-.71.3-1.47.75-2.15,1-.29-.43-1-.61-1.11-1.11.43-.27.55.38,1,.2.24-.21-.22-.5,0-.73.78-.7,1.06.07,1.43.74C15.94,21.52,16.56,21.09,16.64,21.32Z" /><path d="M22.73,15.74C21.45,14,20,11,18.12,14c-.39.37-1.35.71-1.11,1.38.18.4.53.18.82.16A3,3,0,0,0,20.55,17c.46.17.67-.46,1.06-.56C22,17,23,16.36,22.73,15.74Zm-3.54-.25a.93.93,0,0,1-.51-.66C19,13.94,19.38,15.19,19.19,15.49Zm1.29.31a2,2,0,0,1-.29-1.73c.15-.12.44.62.57.75C21.22,15.18,21.07,15.84,20.48,15.8Z" /></svg>
