<svg xmlns="http://www.w3.org/2000/svg" viewBox="0 0 32 32"><path d="M23.76,16h0c-.62,4.34,4.71-1.77,1.74-1.93-.5.6-1.93.63-2,1.54" /><path d="M28.8,13.42c-1.5-3.35-4-.62-3.81-2.5.07-.6.37-1.31-.7-1.66.09-.18-.23-.38-.23-.38-1.92-2.53-5.28-2.76-7.72-2.79-2-.08-4.26.68-6.59,1.15C8.5,7.89,6.89,9,6.82,10.47c.23.32-.11.57.12.88-.13.25,0,.36,0,.6-.17.15,0,.27,0,.44,0,3.22.49,6.87,2.71,9.65,1.86,3.16,3.08,1.78,5.93,2.52,2,0,5.32.18,6.15-2.07a4.39,4.39,0,0,1,1-1c.53-1.51,2.14-1.23,3.26-2A5.77,5.77,0,0,0,28.8,13.42ZM9.25,10.25C12,7.49,18.4,7.48,21.6,8.78c1,.38.58,1.06.75,1.54-.14-.39-2.21,1.8-1.92.59.2-.85-.26-1.72-.84-1.43a2.26,2.26,0,0,0-1.77-.56c-.25.19-.38,0-.58-.14-.4,0-.78.24-1.18.26-.24-.08-.53-.22-.75,0-.36-.33-.81.19-1.18-.09-1.15.46-2.76.92-3.18,2.33C10.48,11.18,9,11,9.25,10.25ZM27,14.71c-.14.2-.38.41-.16.64a2.93,2.93,0,0,0-.38.7c-.65.47-.65,1.14-1.37,1.51-.85.66-1.73.22-2.53.83S22,20.2,21.07,20.74c-1.52,2.13-4,2.38-6.5,2.21-1-.31-1.47-.3-2.48-.56-.46-.54-1-1.09-1.48-1.62C9,18.5,8.58,15.68,8.46,13c1.4.29,3,.75,4.63.94a27.56,27.56,0,0,0,8.68-1c.76-.09,2.05-1.65,1.72-.1-1.43,1.39.35,2,1.49,1C25.88,13,27.38,13.18,27,14.71Z" /></svg>
