<svg xmlns="http://www.w3.org/2000/svg" viewBox="0 0 32 32"><path d="M26.41,10.7c2.07-3.46-5.7-1.06-7.34-1.65a50.17,50.17,0,0,0-13.59.26c0,3.28-.27,6.76-.14,10-.52,1.27.19,2.4-.25,3.59.46,1,1.4-.43,2-.1,2-.69,4.13,1.16,6,.35A2.11,2.11,0,0,0,15,22.87a1.32,1.32,0,0,0,1.19-.15C18,22.42,20,23,21.61,23A16.44,16.44,0,0,0,23.86,23c1.31.15,2.72.92,2.18-1.24a6.47,6.47,0,0,0,0-2.7,10.79,10.79,0,0,0,.12-2.84C26.67,14.52,24.91,12.2,26.41,10.7ZM9.17,10.42c3-.17,6.59.32,9.45.16.95.65,5.53-.74,4.45.76-1,.29-1.67,1.43-2.44,1.48-1.45.87-3,1.75-4.61,2.81C15.19,15.05,6.64,10,9.17,10.42ZM7.84,19.24C6.6,20.42,6.39,21.12,6.69,19a18.32,18.32,0,0,1,0-5.09,13.85,13.85,0,0,0,0-2.89c2.08,1.09,3.51,3,5.55,4.17C10.55,15.48,9.43,18.16,7.84,19.24Zm15.48,2.18c-2.24.88-4.9-.81-7.36,0-2.12.17-4.84.62-6.7.1-3.15.26,3.15-4.12,3.76-5.32.35-.86,1.16.25,1.61.53-.24.78.45.86,1.15,1C20,14.34,18.67,17.64,23.32,21.42ZM25,16c-.28,1.22.19,3.3-.26,4.4-1.86-1.59-3.21-3.77-4.81-5.15-.15-.95,2.58-1.06,2.47-2,.55-.6,1.11-.49,1.68-.88C25.09,9.49,24.79,15.17,25,16Z" /></svg>
