<svg xmlns="http://www.w3.org/2000/svg" viewBox="0 0 32 32"><path d="M21.32,25.58c.64-9.73-5.22-7.51-.6-15a12.69,12.69,0,0,1-3.41-4.8c.15-.38,0-.75,0-1.06-.54.17-.36-.89-.94-.95-.45-.22-.86.4-1.21.16-.31.1-.69-.22-.95.25-.58-.59-2.5,0-2.06,1.07,1.18.47-.14,2-.1,2.93-.65.91-2,1.6-2.38,2.71.09,2,1.77,3.45,2.08,5.4-1.58,1.56-2.93,14,.76,10.39a15.88,15.88,0,0,1,.17-8.79c2.89,2.49,5.25-1.55,5.59.06a11.45,11.45,0,0,1,.6,8.72C20,27.84,21.59,27.27,21.32,25.58ZM17.23,13.91c-.05,1.81-1.36,4.48-3.44,2.91-.15-2.07-2.76-4-2.11-5.93,1.17-.81,1.64-2.38,2.22-3.41.62,1.74-1.28,3.2-.26,4.83,1.6,2.39,4.12-1.82,2.08-2.87-.76.1-.85-3-.62-4.21,1.77-.49.94,2.7,2.14,3.61C18.81,10.35,18.18,12,17.23,13.91Z" /></svg>
