<svg xmlns="http://www.w3.org/2000/svg" viewBox="0 0 32 32"><path d="M26,15.16a10.11,10.11,0,0,0-9.7-9.25c-11.11-.66-14.45,16-4.14,20.18a2.82,2.82,0,0,0,1.48-2.65,3.45,3.45,0,0,0-.19-2.24c-.94-.94-1.93,1.09-3.13.45-.69-.41-1.19-2.91-.75-3.32,1.06.55,1.34,3.34,3,1.86.42-.89,1.86-.88,2.1-2-.23-.27,0-.5,0-.77-.93-1.06-2.83-.19-3.83-1.25-1.23-1-.66-2.43-.15-3.49-.37-.49.22-1.14-.11-1.69.14-.14.48-.07.68,0,.52,0,.92.54,1.37.57.21-.34.64-.92,1.07-.61,2.33-1.16,4.94,2,6.88-.26.65.1-.11,1.21.23,1.58-.42.63.42,1,.46,1.69.51,3.21-4.76,2-4.2,4.82,2.14.28,1.11,2.93,1.17,4.21a.2.2,0,0,1,0,.31c.09.11.12.18,0,.3-.18.36.51,2.08.58,2.44C22.52,26,26.35,18.82,26,15.16Z" /></svg>
