<svg xmlns="http://www.w3.org/2000/svg" viewBox="0 0 32 32"><path d="M13.66,15.45c-.69-.88-1.52.67-1.68,1-.67-.12-1-1.27-1.8-1-4.43,3.29-.74-1.13-5.86,1-.75.89-.4,2.7.84,1.71A6.68,6.68,0,0,1,5,21c-1.41,2,1.77,1.78,2.71,1.88a7.63,7.63,0,0,1,1-.17c-.13-.29.31-.24.44-.41-.11-.25.11-.33.2-.52-.25-.4-.24-1-.93-1.09-.39.15-.24-1-.35-1.13.44-1.06,1.82-3.48,2.77-1.73-.47.89-1,2.21.54,2.22C12.37,19.1,13.94,16.91,13.66,15.45Z" /><path d="M28,20.73c-.2-.72-1.42.13-1.05-.59-.2-2.24-1.2-4.86-1.18-7.27a5.73,5.73,0,0,1-.31-2.93c-1-2.81-2.89.52-2.81,2.05-.89,1.52-1.14,4.48-2.21,1-1.29-4.82-4-4-4.11.74-.16,8.13-5.7,9.45,3.17,9.39.85-.57,0-1.79-.74-1.49-.65-1.89.21-4.94.65-6.77,3.38,7.87,4-4.57,4.9,1.25-.19,1.45.72,2.7.6,4.45-.59.28-1.37.46-1.32,1.33C24.58,23.57,28.88,23.24,28,20.73Z" /></svg>
