<svg xmlns="http://www.w3.org/2000/svg" viewBox="0 0 32 32"><path d="M9.06,11.53h0c1.57.26,2.3-2,.93-3-.37-.13-2.21.91-1.33-.25-1.77-2.33-2.23,3.1-.07,3.28" /><path d="M20,15.54h0c2.56-2-6.51-1.52-6.66-.44,1.69.92,4.17-.09,6.05.42" /><path d="M9.36,15.23h0c1.58,0,1.28-2,.47-2.74-.53-.05-1.21.18-1.69.1C6.52,9.18,6.29,15,8.29,15.21" /><path d="M10.2,17.76c0-1.35-1.14-.94-2-1.26-.2-.72-.89-1.6-1.33-.42.42,1,0,2.31.86,3.18C9,20.06,10.68,19.41,10.2,17.76Z" /><path d="M20.48,12.08c-.93-.83-.14-1.91-.66-2.81-.43-.14-.59.54-.93,0-1.85-.27-3.57.66-5.37.15-1.88-.06-.51,2.64-.43,3.85.35.63.94-.09,1.35-.18,1.3.15,2.72,0,3.84.12S20.55,14,20.48,12.08ZM18.89,12a38.41,38.41,0,0,0-4.88.27c-.42-.32-.77-1.82.12-1.78C15.53,11.09,19.9,9.43,18.89,12Z" /><path d="M19.42,17.77h0c2.36-1.92-1.84-1.74-3.14-1.65-.75.19-2.26-.46-2.66.42,1.21,1.56,4.3.06,5.73,1.28" /><path d="M25.26,14.39c-.34-2.41-.17-4.65-.69-7-.58,0-.92.27-1-.55-.31-3.71-10.41-1.33-13.3-1.78C10,5,10,4.91,10,5.23c-.25,0-.5-.22-.78-.11-.54.79-1.07,3.15.62,2.14.78-2.17,4.77-.69,6.91-1.09,1.83-.15,4.49-.46,5.89.77.19,4-.22,8.27-.32,12.21-.29,1,.29,2.45-.11,3.53.35,1.7-.34,1.59-1.78,1.73-2.41-.15-5.45.08-8.44,0-1.19-.21-3.47,1.7-2.79-.19,2-.49,1.46-4.06-.73-3.19-.94.18-.3-1.45-1.4-1.05-.9,1,.39,3.13,1.13,4.05-.48.73-.5,2.3.72,2.35.64-.27,4.13-1.37,3.39-.46-1.07-.55-3.05,1.12-.93,1.09a38.52,38.52,0,0,1,6-.27C28.67,28.4,24.64,23.19,25.26,14.39Z" /></svg>
