<svg xmlns="http://www.w3.org/2000/svg" viewBox="0 0 32 32"><path d="M20.55,23.07c-.2-2.18-.47-6.82-3-7.74.33-1.13,1.43-2.15,1.91-3.28.63-2.59-.95-3.47-2-5-.54-1.25-.8-4.08-2.67-2.27,0,.89.82,1.54.41,2.52-3.42,2.62-4.71,4.22-1.42,7.37-2,2.71-3,9.39-.92,12.61,2.37-.6.43-2.9.68-4.09-.45-.55,0-1.16,0-1.65a9.79,9.79,0,0,1,.32-3.81c.12-1.48,1.27.66,2.05,0,.57.52,1.51-.8,1.86-.25.39,2.21,1.46,5.84.8,8.09C19.52,28.14,21.55,25.09,20.55,23.07ZM17.27,10.28c-1-.3-.6,1-.75,1.51-.2-.15-.57-.76-.9-.45-.53,0-1.11-.07-.91-.86.92.09,1.3-1.8,2.11-1.38C17.09,9.3,18.14,10.44,17.27,10.28Z" /></svg>
