<svg xmlns="http://www.w3.org/2000/svg" viewBox="0 0 32 32"><path d="M23.4,20.46c.05-3.88-.72-8.39.28-11.81-.64-1.15-2.37-1.2-3-2.38-1.24-.6-2.4.18-3.59-.24-2.12.35-4-.31-6.21.12-1.88-.71-3.23-1-2.34,1.6C9.89,11.22,6.47,26.34,10,26a34.88,34.88,0,0,0,12.28-.15C25.25,27.66,22.76,21.85,23.4,20.46Zm-1.07,3.86c-2.36,1.22-5.06.25-7.64.76-5.91.54-4.84-2.6-4.74-7,.13-1.5-.13-3.07.12-4.69-.11-.45,0-.73,0-1.22-.2-.16.06-.25,0-.45-.23-.18.06-.28.15-.45a3,3,0,0,1-.15-1.52,1.17,1.17,0,0,1,0-.9,1,1,0,0,1,0-.76c-.46-1.43.06-.78,1-1,1.19-.24,2.88.31,3.94.15,3.58.55,4.41-1.12,4.33,3.33a.67.67,0,0,0,.67.28c2.57-1.72,2.34.71,2.07,2.35C21.91,16.66,22.26,20.92,22.33,24.32Z" /><path d="M19.84,20.69h0c3.59-2.34-9.8-2.52-7.57-.48,2.39.21,5-.87,7.41.61" /><path d="M20.34,17.62h0c2.14-2.1-8.63-1.77-8.88-1.1,1.49,1.82,5.7-.08,8.07,1.12" /><path d="M20.1,14.68h0c1.81-1.83-7.38-1.69-8.24-1.45.11,2.08,6,.7,7.83,1.68" /><path d="M16.73,11.53h0c1.72-1.95-4.46-.85-5.29-1.06-.51,1.94,3.77.76,4.77,1.13" /></svg>
