<svg xmlns="http://www.w3.org/2000/svg" viewBox="0 0 32 32"><path d="M9.23,26.54c-1.37-2.31-3.74.3-2,1.91A1.39,1.39,0,0,0,9.23,26.54Z" /><path d="M27.64,18.63c-.07-3-5.61-6.22-3.58-9.14,3.77-7.92-6-6.43-7.33-1.63-1.86,1.52-5.43,1.33-6.7,3.7-1.34-.13-2.25,1.56-3.24,2.36-.11.15,0,.35.1.46s-.52.24-.31.45c-.92,1.8-.67,4.82-.87,7.27A2.39,2.39,0,0,0,10.4,22c-.34-1.66-1.49-3.32.62-4.33.3-.66,1.09-.51,1.58-.57-.24.79.49,1.46,1.11,1.79-.19,2.11,2.13,4.44,2.6,6.21C21.17,27.93,26.75,22.76,27.64,18.63ZM8.11,16c-.88,1-.15-1.29,0-.55Zm.82-1.66a5.49,5.49,0,0,1-.75.84C8,14.39,10,12.76,8.93,14.33ZM18,7.56c2.41-2.86,7.6-4.22,5.15,1.35-.09.29-.41.79-.55.25-.55-.59-.46-2.77-1.51-1.54C20.15,7,18.45,8.19,18,7.56ZM13.05,10.7c-2.89.57,6.42-2.41,7.12-2.13.92.67.58,2.17-.16,2.83-.32-.31-1-.29-1.51-.4A12.91,12.91,0,0,1,13.05,10.7Zm13.22,7.78c-1.35,3.75-5.21,6.91-8.78,5.86-.19-.41-.28-.15-.55-.27,0-1.77-2-3.55-2.56-5.41-.26-.08-.6-.64-.2-.65,1,1.16,2.5.38,2.86-.9-.84-2.61,1.75-3,3.38-4.43,1-.19,1.27-3.57,1.76-2.1-1,1.76-2.07,3.86-3.89,4.85.47,2,1.91-.32,2.6-.95a17.75,17.75,0,0,1,1.81-2.71C23.6,14.12,25.45,16.16,26.27,18.48Z" /></svg>
